<?xml version="1.0" encoding="UTF-8"?>
<!DOCTYPE svg PUBLIC "-//W3C//DTD SVG 1.1//EN" "http://www.w3.org/Graphics/SVG/1.1/DTD/svg11.dtd">
<!-- Creator: CorelDRAW -->
<svg xmlns="http://www.w3.org/2000/svg" xml:space="preserve" width="500px" height="500px" version="1.1" style="shape-rendering:geometricPrecision; text-rendering:geometricPrecision; image-rendering:optimizeQuality; fill-rule:evenodd; clip-rule:evenodd"
viewBox="0 0 1591.877 1591.877"
 xmlns:xlink="http://www.w3.org/1999/xlink"
 xmlns:xodm="http://www.corel.com/coreldraw/odm/2003">
 <defs>
  <style type="text/css">
   <![CDATA[
    .fil0 {fill:none}
    .fil1 {fill:gray;fill-rule:nonzero}
   ]]>
  </style>
 </defs>
 <g id="Layer_x0020_1">
  <metadata id="CorelCorpID_0Corel-Layer"/>
  <rect class="fil0" width="1591.877" height="1591.877"/>
  <path class="fil1" d="M1496.439 942.133c0,-42.391 -35.856,-78.235 -80.066,-78.235 -44.213,0 -80.068,35.844 -80.066,79.059 0.001,126.142 0.011,126.133 0.012,253.272 0,77.924 -62.175,140.097 -140.097,140.097l-800.571 0c-77.925,0 -140.1,-62.173 -140.1,-140.097l0 -800.57c0,-77.925 62.175,-140.466 140.1,-140.466l284.171 0.188c45.354,0.189 81.199,-35.667 81.199,-79.879 0,-44.212 -35.845,-80.067 -80.057,-80.067 -0.374,0 -0.773,0.011 -1.71,0.011l-283.603 0c-164.81,0 -300.213,135.403 -300.213,300.213l0 800.57c0,164.81 135.403,300.213 300.213,300.213l800.571 0c164.807,0 300.213,-135.403 300.213,-300.213 0,-127.139 0.004,-128.778 0.004,-254.096zm-84.35 -836.299c-2.521,0.07 -5.074,0.302 -7.571,0.665l-436.795 0.009c-0.316,0 -0.656,-0.009 -0.976,-0.009 -37.87,0 -68.58,30.712 -68.58,68.58 0,37.868 30.71,68.578 68.58,68.578 0.32,0 0.66,-0.008 0.972,-0.008l280.178 0 -465.798 465.797c-13.457,12.919 -21.078,30.793 -21.078,49.457 0,37.868 30.712,68.579 68.579,68.579 18.666,0 36.538,-7.62 49.467,-21.083l465.792 -465.788 0 280.174c-0.005,0.312 -0.012,0.653 -0.012,0.973 0,37.868 30.71,68.58 68.578,68.58 37.869,0 68.58,-30.712 68.58,-68.58 0,-0.32 -0.009,-0.661 -0.009,-0.973l0.005 -437.27c0.401,-3.016 0.608,-6.078 0.608,-9.127 0,-37.868 -30.711,-68.579 -68.578,-68.579 -0.645,0 -1.304,0.009 -1.945,0.025l0.003 0z"/>
 </g>
</svg>
