<?xml version="1.0" encoding="UTF-8"?>
<!DOCTYPE svg PUBLIC "-//W3C//DTD SVG 1.1//EN" "http://www.w3.org/Graphics/SVG/1.1/DTD/svg11.dtd">
<!-- Creator: CorelDRAW -->
<svg xmlns="http://www.w3.org/2000/svg" xml:space="preserve" width="30px" height="19px" version="1.1" style="shape-rendering:geometricPrecision; text-rendering:geometricPrecision; image-rendering:optimizeQuality; fill-rule:evenodd; clip-rule:evenodd"
viewBox="0 0 10.939 6.928"
 xmlns:xlink="http://www.w3.org/1999/xlink"
 xmlns:xodm="http://www.corel.com/coreldraw/odm/2003">
 <defs>
  <style type="text/css">
   <![CDATA[
    .fil0 {fill:#333333}
   ]]>
  </style>
 </defs>
 <g id="Layer_x0020_1">
  <metadata id="CorelCorpID_0Corel-Layer"/>
  <path class="fil0" d="M9.003 1.143c-0.353,-0.048 -0.825,-0.049 -1.528,-0.049 -0.302,0 -0.547,-0.245 -0.547,-0.547 0,-0.302 0.245,-0.547 0.547,-0.547l0.038 0c0.655,0 1.202,0 1.635,0.058 0.458,0.062 0.872,0.197 1.204,0.529 0.332,0.333 0.467,0.746 0.529,1.204 0.058,0.434 0.058,0.98 0.058,1.635l0 0.076c0,0.655 0,1.202 -0.058,1.635 -0.062,0.458 -0.197,0.872 -0.529,1.204 -0.332,0.332 -0.746,0.467 -1.204,0.529 -0.433,0.058 -0.98,0.058 -1.635,0.058l-0.076 0c-0.655,0 -1.201,0 -1.635,-0.058 -0.458,-0.062 -0.871,-0.197 -1.204,-0.529 -0.332,-0.332 -0.467,-0.746 -0.529,-1.204 -0.058,-0.433 -0.058,-0.98 -0.058,-1.635l0 -0.038c0,-0.302 0.245,-0.547 0.547,-0.547 0.302,0 0.547,0.245 0.547,0.547 0,0.703 0.001,1.175 0.048,1.528 0.046,0.336 0.124,0.48 0.219,0.575 0.095,0.095 0.239,0.173 0.576,0.219 0.352,0.047 0.824,0.048 1.527,0.048 0.703,0 1.175,-0.001 1.528,-0.048 0.336,-0.046 0.48,-0.124 0.575,-0.219 0.095,-0.095 0.173,-0.239 0.219,-0.575 0.047,-0.353 0.048,-0.825 0.048,-1.528 0,-0.703 -0.001,-1.175 -0.048,-1.528 -0.046,-0.336 -0.124,-0.48 -0.219,-0.575 -0.095,-0.095 -0.239,-0.173 -0.575,-0.218z"/>
  <path class="fil0" d="M3.426 0l0.076 0c0.655,0 1.202,0 1.635,0.058 0.458,0.062 0.872,0.197 1.204,0.529 0.332,0.333 0.467,0.746 0.529,1.204 0.058,0.434 0.058,0.98 0.058,1.635l0 0.038c0,0.302 -0.245,0.547 -0.547,0.547 -0.302,0 -0.547,-0.245 -0.547,-0.547 0,-0.703 -0.001,-1.175 -0.048,-1.528 -0.046,-0.336 -0.124,-0.48 -0.219,-0.575 -0.095,-0.095 -0.239,-0.173 -0.575,-0.218 -0.353,-0.048 -0.825,-0.049 -1.528,-0.049 -0.703,0 -1.175,0.001 -1.528,0.049 -0.336,0.045 -0.48,0.123 -0.575,0.218 -0.095,0.095 -0.173,0.239 -0.218,0.575 -0.048,0.353 -0.049,0.825 -0.049,1.528 0,0.703 0.001,1.175 0.049,1.528 0.045,0.336 0.123,0.48 0.218,0.575 0.095,0.095 0.239,0.173 0.575,0.219 0.353,0.047 0.825,0.048 1.528,0.048 0.302,0 0.547,0.245 0.547,0.547 0,0.302 -0.245,0.547 -0.547,0.547l-0.038 0c-0.655,0 -1.201,0 -1.635,-0.058 -0.458,-0.062 -0.871,-0.197 -1.204,-0.529 -0.332,-0.332 -0.467,-0.746 -0.529,-1.204 -0.058,-0.433 -0.058,-0.98 -0.058,-1.635l0 -0.076c0,-0.655 0,-1.201 0.058,-1.635 0.062,-0.458 0.197,-0.871 0.529,-1.204 0.333,-0.332 0.746,-0.467 1.204,-0.529 0.434,-0.058 0.98,-0.058 1.635,-0.058z"/>
 </g>
</svg>
