<?xml version="1.0" encoding="UTF-8"?>
<!DOCTYPE svg PUBLIC "-//W3C//DTD SVG 1.1//EN" "http://www.w3.org/Graphics/SVG/1.1/DTD/svg11.dtd">
<!-- Creator: CorelDRAW -->
<svg xmlns="http://www.w3.org/2000/svg" xml:space="preserve" width="500px" height="500px" version="1.1" style="shape-rendering:geometricPrecision; text-rendering:geometricPrecision; image-rendering:optimizeQuality; fill-rule:evenodd; clip-rule:evenodd"
viewBox="0 0 190.063 190.063"
 xmlns:xlink="http://www.w3.org/1999/xlink"
 xmlns:xodm="http://www.corel.com/coreldraw/odm/2003">
 <defs>
  <style type="text/css">
   <![CDATA[
    .str0 {stroke:gray;stroke-width:0.38;stroke-miterlimit:22.9256}
    .fil0 {fill:none}
    .fil1 {fill:gray}
   ]]>
  </style>
 </defs>
 <g id="Layer_x0020_1">
  <metadata id="CorelCorpID_0Corel-Layer"/>
  <rect class="fil0" width="190.063" height="190.063"/>
  <path class="fil1 str0" d="M169.799 95.032c0,23.339 -18.921,42.259 -42.26,42.259 -5.386,0 -9.753,4.367 -9.753,9.753 0,5.386 4.367,9.752 9.753,9.752 34.111,0 61.764,-27.652 61.764,-61.763 0,-34.112 -27.653,-61.764 -61.764,-61.764 -34.112,0 -61.764,27.652 -61.764,61.764 0,5.385 4.367,9.752 9.752,9.752 5.386,0 9.753,-4.367 9.753,-9.752 0,-23.34 18.92,-42.26 42.26,-42.26 23.339,0 42.26,18.92 42.26,42.26l-0.001 -0.001zm-107.275 -42.26c-23.339,0 -42.259,18.92 -42.259,42.26 0,23.339 18.92,42.259 42.259,42.259 23.34,0 42.26,-18.92 42.26,-42.259 0,-5.386 4.367,-9.753 9.753,-9.753 5.385,0 9.752,4.367 9.752,9.753 0,34.111 -27.652,61.763 -61.764,61.763 -34.111,0 -61.764,-27.652 -61.764,-61.763 0,-34.112 27.653,-61.764 61.764,-61.764 5.386,0 9.753,4.366 9.753,9.752 0,5.387 -4.366,9.753 -9.753,9.753l-0.001 -0.001z"/>
 </g>
</svg>
