<?xml version="1.0" encoding="UTF-8"?>
<!DOCTYPE svg PUBLIC "-//W3C//DTD SVG 1.1//EN" "http://www.w3.org/Graphics/SVG/1.1/DTD/svg11.dtd">
<!-- Creator: CorelDRAW -->
<svg xmlns="http://www.w3.org/2000/svg" xml:space="preserve" width="500px" height="500px" version="1.1" style="shape-rendering:geometricPrecision; text-rendering:geometricPrecision; image-rendering:optimizeQuality; fill-rule:evenodd; clip-rule:evenodd"
viewBox="0 0 8333.669 8333.669"
 xmlns:xlink="http://www.w3.org/1999/xlink"
 xmlns:xodm="http://www.corel.com/coreldraw/odm/2003">
 <defs>
  <style type="text/css">
   <![CDATA[
    .fil0 {fill:none}
    .fil1 {fill:gray;fill-rule:nonzero}
   ]]>
  </style>
 </defs>
 <g id="Layer_x0020_1">
  <metadata id="CorelCorpID_0Corel-Layer"/>
  <rect class="fil0" width="8333.669" height="8333.669"/>
  <path class="fil1" d="M5262.101 1602.694c0,-0.939 0,-2.142 0,-3.087 0,-607.179 -492.403,-1099.576 -1099.575,-1099.576 -607.173,0 -1099.576,492.397 -1099.576,1099.576 0,465.958 293.851,881.564 733.099,1036.757l-0.05 4830.747c0,202.388 164.138,366.527 366.521,366.527 202.388,0 366.52,-164.139 366.52,-366.527l0 -4830.81c438.134,-154.727 731.852,-568.865 733.061,-1033.607l0 0zm2525.091 2932.205c-1.203,-464.736 -294.928,-878.874 -733.092,-1033.658l0.037 -2631.596c0,-202.395 -164.138,-366.527 -366.52,-366.527 -202.396,0 -366.528,164.132 -366.528,366.527l0 2631.659c-434.876,157.669 -724.43,571.001 -724.43,1033.595 0,462.6 289.554,875.926 724.367,1033.664l0.057 1898.548c0.006,202.388 164.138,366.527 366.534,366.527 202.382,0 366.52,-164.139 366.52,-366.527l0 -1898.604c438.127,-154.728 731.852,-568.866 733.061,-1033.608l-0.006 0zm-5783.242 432.508l0 -4097.762c0,-202.395 -164.132,-366.527 -366.515,-366.527 -202.395,0 -366.527,164.132 -366.527,366.527l0 4097.762c-434.87,157.669 -724.431,571.001 -724.431,1033.601 0,462.6 289.561,875.926 724.368,1033.658l0.057 432.445c0.006,202.388 164.138,366.527 366.533,366.527 202.383,0 366.515,-164.139 366.515,-366.527l0 -432.496c434.876,-157.681 724.443,-571.007 724.443,-1033.607 0,-462.6 -289.567,-875.932 -724.374,-1033.671l-0.069 0.07z"/>
 </g>
</svg>
