<svg xmlns="http://www.w3.org/2000/svg" xml:space="preserve" width="48" height="48" style="shape-rendering:geometricPrecision;text-rendering:geometricPrecision;image-rendering:optimizeQuality;fill-rule:evenodd;clip-rule:evenodd" viewBox="0 0 1268.36 1268.36"><g id="Layer_x0020_1"><path d="M0 0h1268.36v1268.36H0z" style="fill:none"/><path d="M1078.29 692.86c2.71-18.96 4.51-37.91 4.51-58.67 0-19.86-1.81-39.72-4.51-58.67l126.38-98.39c10.83-9.03 14.44-25.28 7.21-37.91l-120.05-206.71c-5.41-9.93-15.34-15.35-26.18-15.35-3.61 0-7.21.91-9.93 1.81l-148.94 59.58c-30.69-23.47-64.09-43.33-101.1-58.67L783.12 61.9c-1.81-14.44-14.44-25.28-28.89-25.28H515.02c-15.34 0-27.98 10.84-29.79 25.28l-22.56 157.98c-36.1 15.34-69.5 35.19-101.1 58.67l-148.94-59.58c-3.62-.9-7.22-1.81-10.84-1.81-9.93 0-19.86 5.42-25.27 15.35L57.36 439.22c-8.12 12.63-4.51 28.88 7.22 37.91l125.48 98.39c-1.81 18.96-3.62 38.81-3.62 58.67s1.81 39.72 3.62 58.67L64.58 791.25c-11.73 9.03-14.44 25.28-7.22 38.82l119.16 206.7c5.42 9.03 15.34 14.45 26.18 14.45 3.62 0 7.21 0 9.93-1.81l148.94-59.58c31.6 24.37 64.99 43.33 101.1 58.67l22.56 157.98c1.81 14.44 14.45 25.28 29.79 25.28h239.21c14.45 0 27.09-10.84 28.89-25.28l22.56-157.98a469 469 0 0 0 101.1-58.67l148.94 59.58c3.62 1.81 7.22 1.81 10.84 1.81a29.9 29.9 0 0 0 25.27-14.45l120.05-206.7c7.22-13.54 3.62-29.79-7.21-38.82zM960.04 590.85c2.71 18.06 2.71 30.7 2.71 43.33s-.9 26.18-2.71 43.33l-8.12 67.69 53.25 42.43 64.09 49.65-41.52 72.22-75.83-29.79-62.29-25.27-54.16 40.62c-25.28 18.96-49.65 33.41-74.02 43.32l-64.09 26.18-9.02 66.8-12.64 81.24h-83.04l-11.73-81.24-9.02-66.8-64.09-26.18c-25.28-10.83-49.65-24.37-73.13-42.43l-54.16-41.52-63.18 25.27-76.73 30.7-41.53-72.22 64.99-50.55 53.26-41.52-9.03-67.7c-1.81-18.06-2.71-32.5-2.71-44.23s.9-25.28 2.71-43.33l9.03-67.69-53.26-41.53-64.99-50.54 41.53-72.22 76.73 30.69 61.39 24.37 54.15-40.62c25.28-18.96 50.55-33.41 74.93-43.32l63.18-25.28 9.03-67.7 12.63-81.24h83.04l10.84 81.24 9.93 67.7 63.18 25.28c26.18 10.83 49.65 24.37 74.02 42.43l54.16 41.52L951 388.67l75.83-30.7 41.53 72.22-63.19 51.45-53.25 41.53 8.12 67.69zM634.17 394.97c-131.8 0-239.22 107.41-239.22 239.21s107.42 239.21 239.22 239.21c131.79 0 239.21-107.41 239.21-239.21S765.96 394.97 634.17 394.97m0 359.27c-65.89 0-119.16-54.16-119.16-120.05a119.04 119.04 0 0 1 119.16-119.15c65.88 0 120.04 53.25 120.04 119.15 0 65.89-54.16 120.05-120.04 120.05" style="fill:#1f1f1f;fill-rule:nonzero"/></g></svg>