<?xml version="1.0" encoding="UTF-8"?>
<!DOCTYPE svg PUBLIC "-//W3C//DTD SVG 1.1//EN" "http://www.w3.org/Graphics/SVG/1.1/DTD/svg11.dtd">
<!-- Creator: CorelDRAW -->
<svg xmlns="http://www.w3.org/2000/svg" xml:space="preserve" width="48px" height="48px" version="1.1" style="shape-rendering:geometricPrecision; text-rendering:geometricPrecision; image-rendering:optimizeQuality; fill-rule:evenodd; clip-rule:evenodd"
viewBox="0 0 1.55 1.55"
 xmlns:xlink="http://www.w3.org/1999/xlink"
 xmlns:xodm="http://www.corel.com/coreldraw/odm/2003">
 <defs>
  <style type="text/css">
   <![CDATA[
    .fil0 {fill:none}
    .fil1 {fill:#1F1F1F;fill-rule:nonzero}
   ]]>
  </style>
 </defs>
 <g id="Layer_x0020_1">
  <metadata id="CorelCorpID_0Corel-Layer"/>
  <polygon class="fil0" points="0,0 1.55,0 1.55,1.55 0,1.55 "/>
  <path class="fil1" d="M1.267 0.84c0.003,-0.021 0.005,-0.042 0.005,-0.065 0,-0.022 -0.002,-0.044 -0.005,-0.065l0.14 -0.109c0.012,-0.01 0.016,-0.028 0.008,-0.042l-0.133 -0.229c-0.006,-0.011 -0.017,-0.017 -0.029,-0.017 -0.004,0 -0.008,0.001 -0.011,0.002l-0.165 0.066c-0.034,-0.026 -0.071,-0.048 -0.112,-0.065l-0.025 -0.175c-0.002,-0.016 -0.016,-0.028 -0.032,-0.028l-0.265 0c-0.017,0 -0.031,0.012 -0.033,0.028l-0.025 0.175c-0.04,0.017 -0.077,0.039 -0.112,0.065l-0.165 -0.066c-0.004,-0.001 -0.008,-0.002 -0.012,-0.002 -0.011,0 -0.022,0.006 -0.028,0.017l-0.132 0.229c-0.009,0.014 -0.005,0.032 0.008,0.042l0.139 0.109c-0.002,0.021 -0.004,0.043 -0.004,0.065 0,0.022 0.002,0.044 0.004,0.065l-0.139 0.109c-0.013,0.01 -0.016,0.028 -0.008,0.043l0.132 0.229c0.006,0.01 0.017,0.016 0.029,0.016 0.004,0 0.008,0 0.011,-0.002l0.165 -0.066c0.035,0.027 0.072,0.048 0.112,0.065l0.025 0.175c0.002,0.016 0.016,0.028 0.033,0.028l0.265 0c0.016,0 0.03,-0.012 0.032,-0.028l0.025 -0.175c0.04,-0.017 0.078,-0.039 0.112,-0.065l0.165 0.066c0.004,0.002 0.008,0.002 0.012,0.002 0.011,0 0.022,-0.006 0.028,-0.016l0.133 -0.229c0.008,-0.015 0.004,-0.033 -0.008,-0.043l-0.14 -0.109 0 0zm-0.131 -0.113c0.003,0.02 0.003,0.034 0.003,0.048 0,0.014 -0.001,0.029 -0.003,0.048l-0.009 0.075 0.059 0.047 0.071 0.055 -0.046 0.08 -0.084 -0.033 -0.069 -0.028 -0.06 0.045c-0.028,0.021 -0.055,0.037 -0.082,0.048l-0.071 0.029 -0.01 0.074 -0.014 0.09 -0.092 0 -0.013 -0.09 -0.01 -0.074 -0.071 -0.029c-0.028,-0.012 -0.055,-0.027 -0.081,-0.047l-0.06 -0.046 -0.07 0.028 -0.085 0.034 -0.046 -0.08 0.072 -0.056 0.059 -0.046 -0.01 -0.075c-0.002,-0.02 -0.003,-0.036 -0.003,-0.049 0,-0.013 0.001,-0.028 0.003,-0.048l0.01 -0.075 -0.059 -0.046 -0.072 -0.056 0.046 -0.08 0.085 0.034 0.068 0.027 0.06 -0.045c0.028,-0.021 0.056,-0.037 0.083,-0.048l0.07 -0.028 0.01 -0.075 0.014 -0.09 0.092 0 0.012 0.09 0.011 0.075 0.07 0.028c0.029,0.012 0.055,0.027 0.082,0.047l0.06 0.046 0.07 -0.028 0.084 -0.034 0.046 0.08 -0.07 0.057 -0.059 0.046 0.009 0.075zm-0.361 -0.217c-0.146,0 -0.265,0.119 -0.265,0.265 0,0.146 0.119,0.265 0.265,0.265 0.146,0 0.265,-0.119 0.265,-0.265 0,-0.146 -0.119,-0.265 -0.265,-0.265zm0 0.398c-0.073,0 -0.132,-0.06 -0.132,-0.133 0,-0.073 0.059,-0.132 0.132,-0.132 0.073,0 0.133,0.059 0.133,0.132 0,0.073 -0.06,0.133 -0.133,0.133z"/>
 </g>
</svg>
