<?xml version="1.0" encoding="UTF-8"?>
<!DOCTYPE svg PUBLIC "-//W3C//DTD SVG 1.1//EN" "http://www.w3.org/Graphics/SVG/1.1/DTD/svg11.dtd">
<!-- Creator: CorelDRAW -->
<svg xmlns="http://www.w3.org/2000/svg" xml:space="preserve" width="500px" height="500px" version="1.1" style="shape-rendering:geometricPrecision; text-rendering:geometricPrecision; image-rendering:optimizeQuality; fill-rule:evenodd; clip-rule:evenodd"
viewBox="0 0 8333.669 8333.669"
 xmlns:xlink="http://www.w3.org/1999/xlink"
 xmlns:xodm="http://www.corel.com/coreldraw/odm/2003">
 <defs>
  <style type="text/css">
   <![CDATA[
    .fil0 {fill:none}
    .fil1 {fill:gray;fill-rule:nonzero}
   ]]>
  </style>
 </defs>
 <g id="Layer_x0020_1">
  <metadata id="CorelCorpID_0Corel-Layer"/>
  <rect class="fil0" width="8333.669" height="8333.669"/>
  <path class="fil1" d="M5276.269 1569.521c0.006,-0.951 0.006,-2.18 0.006,-3.131 0,-615.034 -498.778,-1113.812 -1113.812,-1113.812 -615.022,0 -1113.8,498.778 -1113.8,1113.812 0,471.98 297.662,892.972 742.586,1050.169l-0.051 4893.268c0,205.003 166.256,371.258 371.265,371.258 205.009,0 371.264,-166.255 371.264,-371.258l0 -4893.331c443.797,-156.724 741.32,-576.224 742.548,-1046.982l-0.006 0.007zm-1113.806 371.27c-205.009,0 -371.265,-166.267 -371.265,-371.27 0,-205.016 166.256,-371.271 371.265,-371.271 205.009,0 371.264,166.255 371.264,371.271 0,205.003 -166.255,371.27 -371.264,371.27z"/>
  <path class="fil1" d="M8041.967 4539.668c-1.216,-470.752 -298.739,-890.245 -742.567,-1047.032l0.038 -2665.657c0,-205.009 -166.261,-371.264 -371.271,-371.264 -205.015,0 -371.27,166.255 -371.27,371.264l0 2665.714c-440.496,159.716 -733.804,578.396 -733.804,1046.968 0,468.585 293.308,887.265 733.741,1047.051l0.063 1923.115c0,205.003 166.255,371.258 371.27,371.258 205.01,0 371.271,-166.255 371.271,-371.258l0 -1923.184c443.79,-156.718 741.313,-576.217 742.542,-1046.982l-0.013 0.007zm-1113.8 371.27c-205.015,-0.006 -371.27,-166.261 -371.27,-371.277 0,-205.009 166.255,-371.264 371.27,-371.264 205.01,0 371.271,166.255 371.271,371.264 0,205.016 -166.261,371.271 -371.271,371.271l0 0.006z"/>
  <path class="fil1" d="M1768.029 4977.769l0 -4150.79c0,-205.009 -166.255,-371.264 -371.271,-371.264 -205.003,0 -371.258,166.255 -371.258,371.264l0 4150.79c-440.502,159.71 -733.804,578.391 -733.804,1046.975 0,468.585 293.302,887.265 733.741,1047.038l0.057 438.045c0.006,205.003 166.261,371.258 371.264,371.258 205.016,0 371.271,-166.255 371.271,-371.258l0 -438.101c440.502,-159.717 733.817,-578.397 733.817,-1046.982 0,-468.584 -293.315,-887.265 -733.748,-1047.044l-0.069 0.069zm-371.271 1418.252c-205.003,-0.006 -371.258,-166.261 -371.258,-371.277 0,-205.009 166.255,-371.27 371.258,-371.27 205.016,0 371.271,166.261 371.271,371.27 0,205.016 -166.255,371.271 -371.271,371.271l0 0.006z"/>
 </g>
</svg>
