<?xml version="1.0" encoding="UTF-8"?>
<!DOCTYPE svg PUBLIC "-//W3C//DTD SVG 1.1//EN" "http://www.w3.org/Graphics/SVG/1.1/DTD/svg11.dtd">
<!-- Creator: CorelDRAW -->
<svg xmlns="http://www.w3.org/2000/svg" xml:space="preserve" width="500px" height="500px" version="1.1" style="shape-rendering:geometricPrecision; text-rendering:geometricPrecision; image-rendering:optimizeQuality; fill-rule:evenodd; clip-rule:evenodd"
viewBox="0 0 181.772 181.772"
 xmlns:xlink="http://www.w3.org/1999/xlink"
 xmlns:xodm="http://www.corel.com/coreldraw/odm/2003">
 <defs>
  <style type="text/css">
   <![CDATA[
    .str0 {stroke:gray;stroke-width:1.817;stroke-miterlimit:22.9256}
    .fil0 {fill:none}
    .fil1 {fill:gray}
   ]]>
  </style>
 </defs>
 <g id="Layer_x0020_1">
  <metadata id="CorelCorpID_0Corel-Layer"/>
  <rect class="fil0" width="181.772" height="181.772"/>
  <path class="fil1 str0" d="M163.578 83.634c-4.014,0 -7.269,3.256 -7.269,7.27 -0.032,36.11 -29.314,65.391 -65.424,65.424 -0.029,0 -0.084,0 -0.115,0 -11.223,0 -22.266,-2.923 -32.013,-8.475l8.192 -8.192c1.36,-1.364 2.127,-3.214 2.127,-5.142 0,-4.013 -3.254,-7.267 -7.268,-7.269l-29.077 0c-4.014,0 -7.27,3.256 -7.27,7.269l0 29.078c0,0 0,0.001 0,0.001 0,2.939 1.772,5.59 4.486,6.715 0.873,0.364 1.813,0.553 2.761,0.553 0.007,0 0.015,0 0.023,0 1.928,0 3.777,-0.766 5.139,-2.13l10.258 -10.228c12.696,8.057 27.435,12.358 42.475,12.358 0.087,0 0.193,0 0.279,0 44.144,-0.049 79.917,-35.821 79.966,-79.959 0,-4.018 -3.256,-7.273 -7.269,-7.273l0 0 -0.001 0zm-152.655 7.27c0,-0.005 0,-0.025 0,-0.034 0,-44.155 35.807,-79.963 79.962,-79.963 15.132,0 29.98,4.306 42.759,12.389l10.258 -10.25c1.362,-1.357 3.212,-2.123 5.139,-2.123 4.014,0 7.27,3.255 7.27,7.269 0,0.006 0,0.014 0,0.02l0 29.077c0,4.014 -3.256,7.27 -7.27,7.27l-29.077 0c-4.014,-0.002 -7.268,-3.256 -7.268,-7.27 0,-1.927 0.767,-3.777 2.129,-5.139l8.199 -8.2c-9.807,-5.548 -20.909,-8.469 -32.18,-8.469 -36.103,0 -65.38,29.277 -65.38,65.38 0,0.007 0,0.032 0,0.04 0,4.017 -3.255,7.272 -7.269,7.272 -4.014,0 -7.269,-3.255 -7.269,-7.269l0 0 0 0.001 -0.003 -0.001z"/>
 </g>
</svg>
