<?xml version="1.0" encoding="UTF-8"?>
<!DOCTYPE svg PUBLIC "-//W3C//DTD SVG 1.1//EN" "http://www.w3.org/Graphics/SVG/1.1/DTD/svg11.dtd">
<!-- Creator: CorelDRAW -->
<svg xmlns="http://www.w3.org/2000/svg" xml:space="preserve" width="132.292mm" height="132.292mm" version="1.1" style="shape-rendering:geometricPrecision; text-rendering:geometricPrecision; image-rendering:optimizeQuality; fill-rule:evenodd; clip-rule:evenodd"
viewBox="0 0 1096.29 1096.29"
 xmlns:xlink="http://www.w3.org/1999/xlink"
 xmlns:xodm="http://www.corel.com/coreldraw/odm/2003">
 <defs>
  <style type="text/css">
   <![CDATA[
    .str0 {stroke:#373737;stroke-width:10.96;stroke-miterlimit:22.9256}
    .fil0 {fill:none}
    .fil1 {fill:#353535}
   ]]>
  </style>
 </defs>
 <g id="Layer_x0020_1">
  <metadata id="CorelCorpID_0Corel-Layer"/>
  <rect class="fil0" width="1096.29" height="1096.29"/>
  <path class="fil1 str0" d="M1021.54 500.92c-26.14,0 -47.34,21.2 -47.34,47.34 -0.21,235.16 -190.9,425.85 -426.06,426.06 -0.19,0 -0.55,0 -0.75,0 -73.09,0 -145,-19.03 -208.48,-55.19l53.35 -53.35c8.86,-8.88 13.85,-20.93 13.85,-33.48 0,-26.14 -21.19,-47.33 -47.33,-47.34l-189.36 0c-26.14,0 -47.34,21.2 -47.34,47.34l0 189.36c0,0 0,0.01 0,0.01 0,19.14 11.54,36.4 29.21,43.73 5.69,2.37 11.81,3.6 17.98,3.6 0.05,0 0.1,0 0.15,0 12.56,0 24.6,-4.99 33.47,-13.87l66.8 -66.61c82.68,52.47 178.67,80.48 276.61,80.48 0.57,0 1.26,0 1.82,0 287.48,-0.32 520.44,-233.28 520.76,-520.72 0,-26.16 -21.2,-47.36 -47.34,-47.36l0 0zm-994.14 47.34c0,-0.03 0,-0.16 0,-0.22 0,-287.55 233.19,-520.74 520.74,-520.74 98.54,0 195.24,28.04 278.46,80.68l66.8 -66.75c8.87,-8.84 20.92,-13.83 33.47,-13.83 26.14,0 47.34,21.2 47.34,47.34 0,0.04 0,0.09 0,0.13l0 189.36c0,26.14 -21.2,47.34 -47.34,47.34l-189.36 0c-26.14,-0.01 -47.33,-21.2 -47.33,-47.34 0,-12.55 4.99,-24.6 13.86,-33.47l53.4 -53.4c-63.87,-36.13 -136.17,-55.15 -209.57,-55.15 -235.11,0 -425.77,190.66 -425.77,425.77 0,0.05 0,0.21 0,0.26 0,26.16 -21.2,47.36 -47.34,47.36 -26.14,0 -47.34,-21.2 -47.34,-47.34l0 0 0 0.01z"/>
 </g>
</svg>
