<?xml version="1.0" encoding="UTF-8"?>
<!DOCTYPE svg PUBLIC "-//W3C//DTD SVG 1.1//EN" "http://www.w3.org/Graphics/SVG/1.1/DTD/svg11.dtd">
<!-- Creator: CorelDRAW -->
<svg xmlns="http://www.w3.org/2000/svg" xml:space="preserve" width="500px" height="500px" version="1.1" style="shape-rendering:geometricPrecision; text-rendering:geometricPrecision; image-rendering:optimizeQuality; fill-rule:evenodd; clip-rule:evenodd"
viewBox="0 0 181.772 181.772"
 xmlns:xlink="http://www.w3.org/1999/xlink"
 xmlns:xodm="http://www.corel.com/coreldraw/odm/2003">
 <defs>
  <style type="text/css">
   <![CDATA[
    .str0 {stroke:gray;stroke-width:1.817;stroke-miterlimit:22.9256}
    .fil0 {fill:none}
    .fil1 {fill:gray}
   ]]>
  </style>
 </defs>
 <g id="Layer_x0020_1">
  <metadata id="CorelCorpID_0Corel-Layer"/>
  <rect class="fil0" width="181.772" height="181.772"/>
  <path class="fil1 str0" d="M161.926 83.799c-3.922,0 -7.104,3.182 -7.104,7.104 -0.031,35.29 -28.647,63.906 -63.937,63.937 -0.028,0 -0.082,0 -0.112,0 -10.969,0 -21.76,-2.855 -31.286,-8.282l8.006 -8.006c1.329,-1.333 2.078,-3.141 2.078,-5.024 0,-3.923 -3.18,-7.103 -7.102,-7.104l-28.417 0c-3.922,0 -7.104,3.181 -7.104,7.104l0 28.416c0,0 0,0.002 0,0.002 0,2.872 1.732,5.462 4.384,6.562 0.853,0.356 1.772,0.54 2.698,0.54 0.007,0 0.015,0 0.022,0 1.885,0 3.692,-0.748 5.023,-2.081l10.024 -9.996c12.408,7.874 26.813,12.077 41.51,12.077 0.086,0 0.189,0 0.273,0 43.141,-0.048 78.101,-35.007 78.148,-78.142 0,-3.926 -3.181,-7.107 -7.104,-7.107l0 0 0 0zm-149.186 7.104c0,-0.004 0,-0.024 0,-0.033 0,-43.151 34.994,-78.145 78.145,-78.145 14.788,0 29.299,4.208 41.788,12.107l10.024 -10.016c1.331,-1.327 3.139,-2.076 5.023,-2.076 3.922,0 7.104,3.181 7.104,7.104 0,0.006 0,0.014 0,0.02l0 28.416c0,3.923 -3.182,7.104 -7.104,7.104l-28.417 0c-3.923,-0.001 -7.102,-3.181 -7.102,-7.104 0,-1.883 0.748,-3.692 2.079,-5.023l8.014 -8.013c-9.585,-5.422 -20.435,-8.276 -31.449,-8.276 -35.282,0 -63.894,28.611 -63.894,63.893 0,0.008 0,0.032 0,0.039 0,3.926 -3.181,7.107 -7.104,7.107 -3.923,0 -7.104,-3.181 -7.104,-7.104l0 0 0 0.002 -0.003 -0.002z"/>
 </g>
</svg>
