<?xml version="1.0" encoding="UTF-8"?>
<!DOCTYPE svg PUBLIC "-//W3C//DTD SVG 1.1//EN" "http://www.w3.org/Graphics/SVG/1.1/DTD/svg11.dtd">
<!-- Creator: CorelDRAW -->
<svg xmlns="http://www.w3.org/2000/svg" xml:space="preserve" width="48px" height="48px" version="1.1" style="shape-rendering:geometricPrecision; text-rendering:geometricPrecision; image-rendering:optimizeQuality; fill-rule:evenodd; clip-rule:evenodd"
viewBox="0 0 1.822 1.822"
 xmlns:xlink="http://www.w3.org/1999/xlink"
 xmlns:xodm="http://www.corel.com/coreldraw/odm/2003">
 <defs>
  <style type="text/css">
   <![CDATA[
    .fil0 {fill:none}
    .fil1 {fill:#1F1F1F;fill-rule:nonzero}
   ]]>
  </style>
 </defs>
 <g id="Layer_x0020_1">
  <metadata id="CorelCorpID_0Corel-Layer"/>
  <polygon class="fil0" points="0,0 1.822,0 1.822,1.822 0,1.822 "/>
  <path class="fil1" d="M1.447 0.375c-0.138,-0.138 -0.326,-0.223 -0.536,-0.223 -0.42,0 -0.758,0.34 -0.758,0.759 0,0.419 0.338,0.759 0.758,0.759 0.354,0 0.649,-0.242 0.733,-0.569l-0.197 0c-0.078,0.221 -0.288,0.379 -0.536,0.379 -0.314,0 -0.569,-0.255 -0.569,-0.569 0,-0.314 0.255,-0.569 0.569,-0.569 0.157,0 0.298,0.065 0.4,0.169l-0.305 0.305 0.664 0 0 -0.664 -0.223 0.223z"/>
 </g>
</svg>
