<?xml version="1.0" encoding="UTF-8"?>
<!DOCTYPE svg PUBLIC "-//W3C//DTD SVG 1.1//EN" "http://www.w3.org/Graphics/SVG/1.1/DTD/svg11.dtd">
<!-- Creator: CorelDRAW -->
<svg xmlns="http://www.w3.org/2000/svg" xml:space="preserve" width="48px" height="48px" version="1.1" style="shape-rendering:geometricPrecision; text-rendering:geometricPrecision; image-rendering:optimizeQuality; fill-rule:evenodd; clip-rule:evenodd"
viewBox="0 0 1.822 1.822"
 xmlns:xlink="http://www.w3.org/1999/xlink"
 xmlns:xodm="http://www.corel.com/coreldraw/odm/2003">
 <defs>
  <style type="text/css">
   <![CDATA[
    .fil0 {fill:none}
    .fil1 {fill:#1F1F1F;fill-rule:nonzero}
   ]]>
  </style>
 </defs>
 <g id="Layer_x0020_1">
  <metadata id="CorelCorpID_0Corel-Layer"/>
  <polygon class="fil0" points="0,0 1.822,0 1.822,1.822 0,1.822 "/>
  <path class="fil1" d="M1.407 0.415c-0.127,-0.127 -0.302,-0.206 -0.496,-0.206 -0.388,0 -0.701,0.314 -0.701,0.702 0,0.388 0.313,0.702 0.701,0.702 0.327,0 0.6,-0.224 0.678,-0.526l-0.182 0c-0.072,0.204 -0.267,0.351 -0.496,0.351 -0.291,0 -0.527,-0.236 -0.527,-0.527 0,-0.291 0.236,-0.527 0.527,-0.527 0.146,0 0.276,0.061 0.37,0.157l-0.282 0.282 0.614 0 0 -0.614 -0.206 0.206z"/>
 </g>
</svg>
